<?xml version="1.0" standalone="no"?>
<!DOCTYPE svg PUBLIC "-//W3C//DTD SVG 20010904//EN"
 "http://www.w3.org/TR/2001/REC-SVG-20010904/DTD/svg10.dtd">
<svg version="1.0" xmlns="http://www.w3.org/2000/svg"
 width="168.000000pt" height="168.000000pt" viewBox="0 0 168.000000 168.000000"
 preserveAspectRatio="xMidYMid meet">
<metadata>
Created by potrace 1.10, written by Peter Selinger 2001-2011
</metadata>
<g transform="translate(0.000000,168.000000) scale(0.100000,-0.100000)"
fill="currentColor" stroke="none">
<path d="M755 1092 c-64 -34 -70 -40 -73 -72 -3 -34 -7 -38 -145 -114 -78 -44
-159 -90 -179 -103 l-38 -23 0 -200 c0 -127 -4 -200 -10 -200 -5 0 -10 -11
-10 -25 0 -30 2 -31 50 -4 l38 22 46 -23 46 -22 45 22 45 22 45 -22 45 -22 45
22 45 22 45 -22 45 -22 45 22 45 22 45 -22 45 -22 45 22 45 22 45 -22 45 -22
46 22 46 23 38 -22 c48 -27 50 -26 50 4 0 14 -4 25 -10 25 -6 0 -11 79 -12
203 l-3 202 -177 100 c-172 98 -177 101 -180 135 -3 32 -9 38 -73 72 -38 21
-77 37 -85 37 -8 0 -46 -16 -85 -37z m145 -37 l50 -25 0 -145 c0 -80 0 -148 0
-152 0 -4 -10 -7 -21 -7 -21 0 -22 4 -20 85 2 73 -1 89 -19 112 -14 18 -31 27
-50 27 -19 0 -36 -9 -50 -27 -18 -23 -21 -39 -19 -112 2 -81 1 -85 -20 -85
-11 0 -21 3 -21 7 0 4 0 72 0 152 l0 145 48 24 c59 31 62 31 122 1z m-219
-231 c-2 -88 -5 -110 -19 -121 -26 -19 -31 -16 -25 20 11 71 -72 117 -115 62
-12 -15 -30 -25 -45 -25 -45 0 -67 -42 -67 -126 0 -64 -3 -75 -21 -84 -11 -7
-21 -10 -22 -8 -1 2 -1 53 1 113 l3 110 99 53 c54 30 122 69 151 86 30 18 56
32 58 30 2 -2 3 -51 2 -110z m541 -12 l87 -47 3 -110 c2 -60 2 -111 1 -113 -1
-2 -11 1 -22 8 -18 9 -21 20 -21 84 0 84 -22 126 -67 126 -15 0 -33 10 -45 25
-43 55 -126 9 -115 -62 6 -36 1 -39 -25 -20 -13 10 -17 35 -20 124 l-3 111 70
-39 c39 -22 109 -61 157 -87z m-368 90 c2 -4 6 -46 7 -92 2 -82 1 -84 -21 -84
-22 0 -23 2 -21 84 2 86 5 100 21 100 5 0 11 -4 14 -8z m-266 -187 c3 -46 -3
-59 -35 -68 -8 -2 -4 103 4 116 12 20 28 -4 31 -48z m543 -11 c3 -32 5 -60 3
-62 -1 -2 -11 3 -23 10 -16 10 -21 23 -21 59 0 25 3 49 7 53 16 16 28 -5 34
-60z m-633 -38 c2 -37 -1 -51 -15 -62 -10 -7 -21 -14 -24 -14 -6 0 -1 95 7
118 9 29 29 3 32 -42z m723 -12 c3 -32 4 -60 3 -62 -1 -2 -12 1 -23 8 -17 8
-21 20 -21 59 0 26 3 51 7 55 16 16 28 -5 34 -60z m-267 -33 l1 -61 -35 8
c-45 9 -115 9 -160 -1 l-35 -8 2 63 c1 35 2 63 2 63 1 0 51 -1 112 -2 l111 -2
2 -60z m-272 -18 c-3 -38 -9 -70 -16 -72 -6 -2 -44 -37 -83 -77 -76 -77 -101
-88 -139 -59 -10 8 -33 15 -49 15 -29 0 -30 1 -27 43 l4 42 98 53 c54 30 122
69 151 87 30 18 56 34 59 34 3 1 4 -29 2 -66z m370 35 c29 -18 99 -58 155 -88
l101 -55 4 -42 c3 -39 1 -43 -20 -43 -13 0 -36 -7 -52 -16 -41 -25 -71 -12
-142 60 -35 34 -70 67 -79 72 -12 6 -18 28 -21 77 -2 37 -3 67 -2 67 1 0 26
-15 56 -32z m-87 -137 c33 -16 73 -43 89 -60 29 -30 29 -31 10 -46 -25 -19
-55 -19 -80 0 -25 19 -75 19 -100 0 -25 -19 -55 -19 -80 0 -25 19 -75 19 -100
0 -25 -19 -64 -18 -89 1 -19 15 -19 17 28 59 88 81 213 99 322 46z"/>
<path d="M820 1020 c0 -13 7 -20 20 -20 13 0 20 7 20 20 0 13 -7 20 -20 20
-13 0 -20 -7 -20 -20z"/>
</g>
</svg>
