<?xml version="1.0" standalone="no"?>
<!DOCTYPE svg PUBLIC "-//W3C//DTD SVG 20010904//EN"
 "http://www.w3.org/TR/2001/REC-SVG-20010904/DTD/svg10.dtd">
<svg version="1.0" xmlns="http://www.w3.org/2000/svg"
 width="168.000000pt" height="168.000000pt" viewBox="0 0 168.000000 168.000000"
 preserveAspectRatio="xMidYMid meet">
<metadata>
Created by potrace 1.10, written by Peter Selinger 2001-2011
</metadata>
<g transform="translate(0.000000,168.000000) scale(0.100000,-0.100000)"
fill="currentColor" stroke="none">
<path d="M500 1167 c0 -49 -3 -56 -45 -97 l-46 -45 3 -317 3 -318 -38 0 c-33
0 -38 -3 -35 -20 3 -21 8 -21 498 -21 490 0 495 0 498 21 3 17 -2 20 -35 20
l-38 0 3 318 3 317 -46 45 c-42 41 -45 48 -45 97 0 50 -1 53 -25 53 -24 0 -25
-3 -25 -53 0 -48 -3 -56 -38 -90 l-38 -37 -215 0 -215 0 -37 38 c-33 34 -37
43 -37 90 0 49 -2 52 -25 52 -24 0 -25 -3 -25 -53z m90 -219 c0 -61 -2 -68
-20 -68 -15 0 -20 7 -20 25 0 20 -5 25 -25 25 -20 0 -25 -5 -25 -25 0 -18 -5
-25 -20 -25 -18 0 -20 7 -20 67 0 62 2 70 32 100 l32 33 33 -32 c31 -30 33
-36 33 -100z m630 0 c0 -61 -2 -68 -20 -68 -15 0 -20 7 -20 25 0 20 -5 25 -25
25 -20 0 -25 -5 -25 -25 0 -18 -5 -25 -20 -25 -18 0 -20 7 -20 67 0 62 2 70
32 100 l32 33 33 -32 c31 -30 33 -36 33 -100z m-180 -8 l0 -60 -200 0 -200 0
0 60 0 60 200 0 200 0 0 -60z m-445 -145 c0 -42 -2 -45 -26 -45 -20 0 -25 5
-25 23 1 16 -5 22 -19 22 -14 0 -20 -6 -19 -22 0 -18 -5 -23 -25 -23 -24 0
-26 3 -26 45 l0 45 70 0 70 0 0 -45z m450 0 c0 -42 -2 -45 -26 -45 -20 0 -25
5 -25 23 1 16 -5 22 -19 22 -14 0 -20 -6 -19 -22 0 -18 -5 -23 -26 -23 -21 0
-26 5 -26 23 1 16 -5 22 -19 22 -14 0 -20 -6 -19 -22 0 -18 -5 -23 -26 -23
-21 0 -26 5 -26 23 1 16 -5 22 -19 22 -14 0 -20 -6 -19 -22 0 -18 -5 -23 -26
-23 -21 0 -26 5 -26 23 1 16 -5 22 -19 22 -14 0 -20 -6 -19 -22 0 -18 -5 -23
-25 -23 -24 0 -26 3 -26 45 l0 45 205 0 205 0 0 -45z m180 0 c0 -42 -2 -45
-26 -45 -20 0 -25 5 -25 23 1 16 -5 22 -19 22 -14 0 -20 -6 -19 -22 0 -18 -5
-23 -25 -23 -24 0 -26 3 -26 45 l0 45 70 0 70 0 0 -45z m-635 -135 c0 -43 -3
-50 -20 -50 -15 0 -20 7 -20 25 0 20 -5 25 -25 25 -20 0 -25 -5 -25 -25 0 -18
-5 -25 -20 -25 -17 0 -20 7 -20 50 l0 50 65 0 65 0 0 -50z m450 10 c0 -22 0
-43 0 -47 1 -5 -8 -9 -20 -11 -16 -3 -20 2 -20 22 0 21 -5 26 -25 26 -20 0
-25 -5 -25 -25 0 -18 -5 -25 -20 -25 -15 0 -20 7 -20 25 0 20 -5 25 -25 25
-20 0 -25 -5 -25 -25 0 -18 -5 -25 -20 -25 -15 0 -20 7 -20 25 0 20 -5 25 -25
25 -20 0 -25 -5 -25 -25 0 -18 -5 -25 -20 -25 -15 0 -20 7 -20 25 0 20 -5 25
-25 25 -20 0 -25 -5 -25 -25 0 -18 -5 -25 -20 -25 -17 0 -20 7 -20 50 l0 50
200 0 200 0 0 -40z m180 -10 c0 -43 -3 -50 -20 -50 -15 0 -20 7 -20 25 0 20
-5 25 -25 25 -20 0 -25 -5 -25 -25 0 -18 -5 -25 -20 -25 -17 0 -20 7 -20 50
l0 50 65 0 65 0 0 -50z m5 -180 l0 -90 -27 0 c-21 0 -25 4 -21 20 10 39 -7 89
-35 104 -23 12 -32 12 -59 1 -35 -15 -48 -45 -41 -95 4 -27 2 -30 -21 -30 -25
0 -26 3 -26 51 0 57 -19 79 -67 79 -45 0 -71 -33 -66 -86 3 -41 2 -44 -22 -44
-23 0 -25 3 -25 51 0 57 -19 79 -67 79 -45 0 -71 -33 -66 -86 3 -41 2 -44 -22
-44 -23 0 -25 3 -25 51 0 57 -19 79 -67 79 -45 0 -71 -33 -66 -86 3 -41 2 -44
-22 -44 -25 0 -25 1 -25 90 l0 90 385 0 385 0 0 -90z m-633 -45 c3 -42 2 -45
-22 -45 -24 0 -25 3 -22 45 3 35 8 45 22 45 14 0 19 -10 22 -45z m180 0 c3
-42 2 -45 -22 -45 -24 0 -25 3 -22 45 3 35 8 45 22 45 14 0 19 -10 22 -45z
m180 0 c3 -42 2 -45 -22 -45 -24 0 -25 3 -22 45 3 35 8 45 22 45 14 0 19 -10
22 -45z m180 0 c3 -42 2 -45 -22 -45 -24 0 -25 3 -22 45 3 35 8 45 22 45 14 0
19 -10 22 -45z"/>
<path d="M504 1009 c-3 -6 0 -17 8 -25 13 -13 16 -13 27 0 7 8 10 20 6 26 -8
13 -32 13 -41 -1z"/>
<path d="M1134 1009 c-3 -6 0 -17 8 -25 13 -13 16 -13 27 0 7 8 10 20 6 26 -8
13 -32 13 -41 -1z"/>
</g>
</svg>
