<?xml version="1.0" standalone="no"?>
<!DOCTYPE svg PUBLIC "-//W3C//DTD SVG 20010904//EN"
 "http://www.w3.org/TR/2001/REC-SVG-20010904/DTD/svg10.dtd">
<svg version="1.0" xmlns="http://www.w3.org/2000/svg"
 width="168.000000pt" height="168.000000pt" viewBox="0 0 168.000000 168.000000"
 preserveAspectRatio="xMidYMid meet">
<metadata>
Created by potrace 1.10, written by Peter Selinger 2001-2011
</metadata>
<g transform="translate(0.000000,168.000000) scale(0.100000,-0.100000)"
fill="currentColor" stroke="none">
<path d="M1067 1193 c-4 -3 -7 -14 -7 -23 0 -21 -38 -57 -65 -62 -12 -2 -21
-13 -23 -26 -4 -28 21 -29 66 -2 27 17 32 17 32 4 0 -33 -30 -73 -65 -84 -24
-8 -35 -18 -35 -31 0 -24 36 -26 68 -3 33 23 40 9 17 -34 -14 -25 -30 -40 -52
-47 -21 -6 -33 -16 -33 -26 0 -27 12 -29 58 -9 l42 19 0 -109 0 -110 -95 0
-95 0 0 174 c0 119 -4 177 -11 182 -6 4 -47 6 -90 5 l-79 -2 0 40 c0 22 -5 43
-10 46 -19 12 -271 7 -286 -6 -11 -9 -14 -52 -14 -226 l0 -214 -23 3 c-16 2
-23 -3 -25 -19 l-3 -23 267 0 267 0 -39 -44 -39 -44 -228 -1 c-228 -1 -228 -1
-225 -23 3 -21 5 -21 206 -19 111 1 202 0 202 -4 0 -3 -19 -26 -42 -51 l-42
-45 -160 2 c-158 2 -161 1 -164 -20 l-3 -21 501 0 501 0 -3 23 c-3 19 -8 21
-37 19 l-34 -4 37 45 c32 39 50 98 29 96 -5 0 -34 -32 -66 -70 l-58 -69 -60 0
-60 0 28 34 c139 166 169 195 196 196 23 0 28 4 25 22 -3 21 -6 22 -115 19
l-113 -3 0 112 c0 95 2 111 14 101 8 -7 28 -16 45 -21 29 -8 31 -7 31 16 0 15
-6 24 -16 24 -23 0 -74 55 -74 79 0 21 1 21 30 6 40 -21 60 -19 60 5 0 13 -9
22 -25 26 -32 8 -65 49 -65 81 l0 24 26 -20 c37 -29 64 -28 64 4 0 19 -5 25
-20 25 -12 0 -32 11 -45 25 -14 13 -25 33 -25 45 0 19 -28 28 -43 13z m-407
-338 l0 -205 -25 0 c-24 0 -25 2 -25 70 l0 71 -62 -3 -63 -3 -3 -67 c-3 -65
-4 -68 -27 -68 l-25 0 0 205 0 205 115 0 115 0 0 -205z m180 -45 l0 -160 -70
0 -70 0 0 160 0 160 70 0 70 0 0 -160z m-270 -110 c0 -47 -2 -50 -25 -50 -23
0 -25 3 -25 50 0 47 2 50 25 50 23 0 25 -3 25 -50z m380 -205 l-102 -115 -60
0 -59 0 28 34 c15 18 60 70 98 114 l70 81 63 1 63 0 -101 -115z m180 0 l-102
-115 -60 0 -59 0 28 34 c15 18 60 70 98 114 l70 81 63 1 63 0 -101 -115z"/>
<path d="M484 1005 c-7 -18 3 -35 21 -35 21 0 28 19 15 35 -16 19 -29 19 -36
0z"/>
<path d="M574 1005 c-7 -18 3 -35 21 -35 21 0 28 19 15 35 -16 19 -29 19 -36
0z"/>
<path d="M484 915 c-7 -18 3 -35 21 -35 21 0 28 19 15 35 -16 19 -29 19 -36 0z"/>
<path d="M574 915 c-7 -18 3 -35 21 -35 21 0 28 19 15 35 -16 19 -29 19 -36 0z"/>
<path d="M754 915 c-7 -18 3 -35 21 -35 21 0 28 19 15 35 -16 19 -29 19 -36 0z"/>
<path d="M754 825 c-7 -18 3 -35 21 -35 21 0 28 19 15 35 -16 19 -29 19 -36 0z"/>
</g>
</svg>
