<?xml version="1.0" standalone="no"?>
<!DOCTYPE svg PUBLIC "-//W3C//DTD SVG 20010904//EN"
 "http://www.w3.org/TR/2001/REC-SVG-20010904/DTD/svg10.dtd">
<svg version="1.0" xmlns="http://www.w3.org/2000/svg"
 width="168.000000pt" height="168.000000pt" viewBox="0 0 168.000000 168.000000"
 preserveAspectRatio="xMidYMid meet">
<metadata>
Created by potrace 1.10, written by Peter Selinger 2001-2011
</metadata>
<g transform="translate(0.000000,168.000000) scale(0.100000,-0.100000)"
fill="currentColor" stroke="none">
<path d="M1060 1170 c0 -12 -11 -32 -25 -45 -13 -14 -33 -25 -45 -25 -15 0
-20 -6 -20 -25 0 -30 14 -31 64 -6 l38 20 -7 -27 c-8 -35 -41 -70 -69 -74 -13
-2 -22 -12 -24 -25 -4 -29 21 -30 66 -3 27 17 32 17 32 4 0 -33 -30 -73 -65
-84 -24 -8 -35 -18 -35 -31 0 -23 37 -26 66 -4 10 8 22 15 27 15 4 0 7 -47 7
-105 l0 -105 -95 0 -96 0 1 165 c1 117 -2 170 -10 180 -9 11 -34 15 -91 15
l-79 0 2 29 c4 55 -11 61 -153 61 -103 0 -131 -3 -143 -16 -14 -13 -16 -48
-16 -225 l0 -209 -25 0 c-20 0 -25 -5 -25 -25 l0 -25 500 0 500 0 0 25 0 25
-115 0 -115 0 0 105 0 106 30 -16 c40 -21 60 -19 60 5 0 13 -9 22 -25 26 -30
7 -65 49 -65 75 0 23 8 23 34 4 31 -24 56 -19 56 10 0 19 -5 25 -20 25 -30 0
-70 44 -70 76 0 25 1 26 18 11 9 -8 29 -19 45 -22 24 -6 27 -4 27 17 0 18 -8
27 -35 36 -25 10 -37 22 -47 47 -9 26 -18 35 -35 35 -17 0 -23 -6 -23 -20z
m-400 -324 l0 -203 -26 5 c-25 4 -26 7 -22 66 l3 61 -67 3 -68 3 0 -69 c0 -68
0 -69 -25 -64 l-25 4 0 199 0 199 115 0 115 0 0 -204z m180 -41 l0 -155 -70 0
-70 0 0 155 0 155 70 0 70 0 0 -155z m-270 -110 c0 -41 -2 -45 -25 -45 -23 0
-25 4 -25 45 0 41 2 45 25 45 23 0 25 -4 25 -45z"/>
<path d="M483 994 c-3 -8 -1 -20 5 -26 15 -15 43 8 35 28 -7 19 -32 18 -40 -2z"/>
<path d="M573 994 c-3 -8 -1 -20 5 -26 15 -15 43 8 35 28 -7 19 -32 18 -40 -2z"/>
<path d="M483 904 c-3 -8 -1 -20 5 -26 15 -15 43 8 35 28 -7 19 -32 18 -40 -2z"/>
<path d="M573 904 c-3 -8 -1 -20 5 -26 15 -15 43 8 35 28 -7 19 -32 18 -40 -2z"/>
<path d="M753 904 c-3 -8 -1 -20 5 -26 15 -15 43 8 35 28 -7 19 -32 18 -40 -2z"/>
<path d="M753 814 c-3 -8 -1 -20 5 -26 15 -15 43 8 35 28 -7 19 -32 18 -40 -2z"/>
<path d="M383 518 c-49 -25 -59 -58 -19 -58 13 0 29 7 36 15 16 19 49 19 74 0
26 -19 90 -19 106 0 16 19 49 19 74 0 26 -19 90 -19 106 0 16 19 49 19 74 0
26 -19 90 -19 106 0 16 19 49 19 74 0 26 -19 90 -19 106 0 16 19 49 19 74 0
26 -19 90 -19 106 0 7 8 19 15 26 15 15 0 19 35 6 44 -5 3 -26 -4 -47 -15
l-38 -21 -42 21 c-52 26 -51 26 -99 0 l-39 -21 -42 21 c-52 26 -48 26 -100 0
l-42 -21 -39 21 c-48 26 -50 26 -98 0 l-39 -21 -42 21 c-52 26 -48 26 -100 0
l-42 -21 -39 21 c-48 26 -49 26 -101 -1z"/>
<path d="M373 379 c-18 -12 -33 -29 -33 -40 0 -24 13 -24 60 2 l38 22 35 -22
c19 -11 42 -21 52 -21 9 0 34 10 55 21 l38 22 35 -22 c19 -11 42 -21 52 -21 9
0 34 10 55 21 l38 22 35 -22 c19 -11 42 -21 52 -21 9 0 34 10 55 21 l38 22 35
-22 c43 -26 60 -26 107 0 l38 22 35 -22 c43 -26 57 -26 107 -1 26 13 40 27 40
40 0 26 -26 26 -65 0 -29 -19 -30 -19 -63 0 -42 25 -79 25 -117 0 -29 -19 -30
-19 -63 0 -42 25 -79 25 -117 0 -29 -19 -30 -19 -63 0 -42 25 -79 25 -117 0
-29 -19 -30 -19 -63 0 -42 25 -79 25 -117 0 -29 -19 -30 -19 -63 0 -42 25 -79
25 -119 -1z"/>
</g>
</svg>
