<?xml version="1.0" standalone="no"?>
<!DOCTYPE svg PUBLIC "-//W3C//DTD SVG 20010904//EN"
 "http://www.w3.org/TR/2001/REC-SVG-20010904/DTD/svg10.dtd">
<svg version="1.0" xmlns="http://www.w3.org/2000/svg"
 width="168.000000pt" height="168.000000pt" viewBox="0 0 168.000000 168.000000"
 preserveAspectRatio="xMidYMid meet">
<metadata>
Created by potrace 1.10, written by Peter Selinger 2001-2011
</metadata>
<g transform="translate(0.000000,168.000000) scale(0.100000,-0.100000)"
fill="currentColor" stroke="none">
<path d="M820 1301 c0 -35 -3 -39 -31 -45 -73 -14 -128 -89 -129 -173 0 -38
-3 -43 -23 -43 -31 0 -47 -18 -47 -55 0 -24 -7 -34 -34 -49 -41 -22 -56 -57
-56 -132 l0 -54 -100 0 -100 0 0 -26 c0 -14 4 -23 10 -19 7 4 10 -50 10 -154
0 -101 -4 -161 -10 -161 -5 0 -10 -10 -10 -22 l0 -23 540 0 540 0 0 23 c0 12
-4 22 -10 22 -6 0 -10 60 -10 161 0 104 3 158 10 154 6 -4 10 5 10 19 l0 26
-100 0 -100 0 0 54 c0 75 -15 110 -56 132 -27 15 -34 25 -34 49 0 37 -16 55
-47 55 -20 0 -23 5 -23 42 0 82 -74 178 -137 178 -20 0 -23 5 -23 40 0 33 -3
40 -20 40 -17 0 -20 -7 -20 -39z m119 -127 l36 -39 -129 -3 c-71 -1 -131 0
-135 3 -3 4 14 25 37 47 42 39 46 40 100 36 49 -4 59 -9 91 -44z m41 -109 l0
-25 -140 0 -140 0 0 25 0 25 140 0 140 0 0 -25z m60 -90 c0 -15 -11 -35 -26
-48 -14 -12 -29 -38 -33 -57 l-7 -35 -67 64 -67 64 -67 -64 -67 -64 -7 35 c-4
19 -19 45 -33 57 -15 13 -26 33 -26 48 l0 25 200 0 200 0 0 -25z m-402 -81
c12 -8 22 -24 22 -35 0 -17 -7 -19 -60 -19 -52 0 -59 2 -53 18 18 50 52 64 91
36z m474 -1 c29 -26 21 -33 -37 -33 -59 0 -68 10 -33 34 29 20 47 20 70 -1z
m-187 -68 l80 -74 -165 0 -165 0 80 74 c44 41 82 74 85 74 3 0 41 -33 85 -74z
m205 -40 c0 -31 -3 -35 -26 -35 -31 0 -84 35 -84 56 0 10 14 14 55 14 l55 0 0
-35z m-493 -10 c-18 -16 -40 -25 -61 -25 -30 0 -33 2 -28 25 4 23 8 25 61 25
l56 -1 -28 -24z m-45 -90 l5 -25 -117 0 -117 0 5 25 c4 25 5 25 112 25 107 0
108 0 112 -25z m450 -135 l3 -160 -22 0 c-23 0 -23 2 -23 135 l0 135 -70 0
-70 0 0 -135 c0 -128 -1 -135 -20 -135 -19 0 -20 7 -20 135 l0 135 -71 0 -70
0 3 -135 c3 -134 3 -135 -19 -135 -23 0 -23 1 -23 160 l0 160 200 0 199 0 3
-160z m268 125 l0 -35 -110 0 -110 0 0 35 0 35 110 0 110 0 0 -35z m-898 -170
c3 -114 3 -115 -19 -115 -23 0 -23 2 -23 115 0 107 1 115 19 115 18 0 20 -9
23 -115z m90 0 c3 -114 3 -115 -19 -115 -23 0 -23 2 -23 115 0 107 1 115 19
115 18 0 20 -9 23 -115z m88 0 c0 -108 -1 -115 -20 -115 -19 0 -20 7 -20 115
0 108 1 115 20 115 19 0 20 -7 20 -115z m180 0 c0 -108 -1 -115 -20 -115 -19
0 -20 7 -20 115 0 108 1 115 20 115 19 0 20 -7 20 -115z m182 0 c3 -114 3
-115 -19 -115 -23 0 -23 2 -23 115 0 107 1 115 19 115 18 0 20 -9 23 -115z
m180 -15 l3 -100 -25 0 -25 0 3 100 c3 90 5 100 22 100 17 0 19 -10 22 -100z
m90 0 l3 -100 -25 0 -25 0 3 100 c3 90 5 100 22 100 17 0 19 -10 22 -100z m90
0 c3 -98 3 -100 -19 -100 -22 0 -23 3 -23 100 0 92 2 100 19 100 18 0 20 -9
23 -100z"/>
</g>
</svg>
