<?xml version="1.0" standalone="no"?>
<!DOCTYPE svg PUBLIC "-//W3C//DTD SVG 20010904//EN"
 "http://www.w3.org/TR/2001/REC-SVG-20010904/DTD/svg10.dtd">
<svg version="1.0" xmlns="http://www.w3.org/2000/svg"
 width="168.000000pt" height="168.000000pt" viewBox="0 0 168.000000 168.000000"
 preserveAspectRatio="xMidYMid meet">
<metadata>
Created by potrace 1.10, written by Peter Selinger 2001-2011
</metadata>
<g transform="translate(0.000000,168.000000) scale(0.100000,-0.100000)"
fill="currentColor" stroke="none">
<path d="M855 1060 c-111 -111 -151 -146 -154 -133 -8 40 -20 43 -155 43 -89
0 -136 -4 -144 -12 -9 -9 -12 -73 -12 -225 l0 -213 -26 0 c-20 0 -25 -4 -22
-21 3 -20 6 -21 366 -19 l362 1 0 -51 0 -51 -362 1 c-360 2 -363 1 -366 -19
l-3 -21 501 0 501 0 -3 22 c-3 21 -6 22 -115 19 l-113 -3 0 52 0 52 113 -3
c109 -3 112 -2 115 19 3 22 1 22 -112 22 l-116 0 0 41 c0 34 2 39 14 30 8 -7
28 -16 45 -21 29 -8 31 -7 31 16 0 15 -6 24 -16 24 -23 0 -74 55 -74 79 0 21
1 21 30 6 40 -21 60 -19 60 5 0 13 -9 22 -25 26 -32 8 -65 49 -65 82 0 23 1
24 18 9 9 -8 29 -19 45 -22 24 -6 27 -5 27 19 0 20 -5 26 -20 26 -27 0 -70 43
-70 70 0 29 -43 24 -48 -5 -5 -28 -40 -63 -66 -67 -13 -2 -22 -12 -24 -25 -4
-29 21 -30 66 -3 27 17 32 17 32 4 0 -33 -30 -73 -65 -84 -24 -8 -35 -18 -35
-31 0 -24 36 -26 68 -3 33 23 40 9 17 -34 -14 -25 -30 -40 -52 -47 -22 -6 -33
-15 -33 -27 0 -22 38 -24 66 -3 29 22 34 18 34 -25 l0 -40 -95 0 -95 0 0 168
c0 117 -4 172 -12 180 -7 7 -39 12 -72 12 l-60 0 69 70 70 71 48 -51 c27 -27
53 -47 59 -44 5 3 28 26 50 50 37 40 45 44 87 44 43 0 49 -4 118 -72 63 -62
74 -70 88 -58 14 12 -1 31 -137 167 -84 84 -160 153 -168 153 -8 0 -83 -68
-165 -150z m220 50 l49 -50 -34 0 c-27 0 -43 -9 -75 -40 l-41 -40 -34 35 -34
35 54 55 c30 30 57 55 60 55 3 0 28 -22 55 -50z m-415 -385 l0 -205 -26 0
c-25 0 -25 2 -23 58 1 32 0 63 -4 68 -4 8 -45 9 -119 4 -5 0 -8 -29 -8 -65 0
-63 -1 -65 -25 -65 l-25 0 0 205 0 205 115 0 115 0 0 -205z m180 -45 l0 -160
-70 0 -70 0 0 160 0 160 70 0 70 0 0 -160z m-270 -115 c0 -41 -2 -45 -25 -45
-23 0 -25 4 -25 45 0 41 2 45 25 45 23 0 25 -4 25 -45z"/>
<path d="M483 864 c-8 -22 18 -37 36 -20 7 8 10 19 7 25 -10 16 -36 13 -43 -5z"/>
<path d="M573 864 c-7 -20 17 -37 34 -23 15 13 6 39 -13 39 -8 0 -17 -7 -21
-16z"/>
<path d="M483 774 c-8 -22 18 -37 36 -20 7 8 10 19 7 25 -10 16 -36 13 -43 -5z"/>
<path d="M573 774 c-8 -22 18 -37 36 -20 7 8 10 19 7 25 -10 16 -36 13 -43 -5z"/>
<path d="M753 774 c-8 -22 18 -37 36 -20 7 8 10 19 7 25 -10 16 -36 13 -43 -5z"/>
<path d="M753 684 c-8 -22 18 -37 36 -20 7 8 10 19 7 25 -10 16 -36 13 -43 -5z"/>
</g>
</svg>
