<?xml version="1.0" standalone="no"?>
<!DOCTYPE svg PUBLIC "-//W3C//DTD SVG 20010904//EN"
 "http://www.w3.org/TR/2001/REC-SVG-20010904/DTD/svg10.dtd">
<svg version="1.0" xmlns="http://www.w3.org/2000/svg"
 width="168.000000pt" height="168.000000pt" viewBox="0 0 168.000000 168.000000"
 preserveAspectRatio="xMidYMid meet">
<metadata>
Created by potrace 1.10, written by Peter Selinger 2001-2011
</metadata>
<g transform="translate(0.000000,168.000000) scale(0.100000,-0.100000)"
fill="currentColor" stroke="none">
<path d="M750 1129 c0 -48 -4 -56 -45 -100 l-45 -48 0 29 c0 25 -4 30 -24 30
-22 0 -23 -3 -19 -47 5 -47 3 -49 -47 -98 l-52 -50 4 33 c4 28 2 32 -19 32
-21 0 -23 -4 -23 -48 l0 -47 -45 3 -45 4 0 -216 0 -216 -35 0 c-30 0 -35 -3
-35 -22 l0 -23 520 0 520 0 0 23 c0 19 -5 22 -35 22 l-35 0 0 216 0 216 -45
-4 -45 -3 0 47 c0 44 -2 48 -25 48 -22 0 -24 -3 -18 -32 l6 -33 -53 50 c-50
49 -52 51 -47 98 4 44 3 47 -19 47 -20 0 -24 -5 -24 -30 l0 -29 -45 48 c-41
44 -45 52 -45 100 0 48 -2 51 -25 51 -22 0 -24 -3 -18 -32 l6 -33 -22 20 c-22
19 -24 19 -53 2 l-31 -18 6 31 c6 27 4 30 -18 30 -23 0 -25 -3 -25 -51z m117
-51 c18 -16 23 -32 23 -67 l0 -46 -50 0 -50 0 0 44 c0 32 6 51 22 68 26 28 26
28 55 1z m-117 -155 l0 -88 -45 0 -45 0 0 45 c0 39 5 50 42 87 23 24 43 43 45
43 2 0 3 -39 3 -87z m270 -43 l0 -45 -45 0 -45 0 0 90 0 89 45 -44 c40 -39 45
-49 45 -90z m-146 34 c9 -8 16 -22 16 -29 0 -20 -28 -45 -50 -45 -22 0 -50 25
-50 45 0 20 28 45 50 45 10 0 26 -7 34 -16z m-254 -136 l0 -103 -50 0 -50 0 0
55 c0 51 3 57 47 102 26 26 49 48 50 48 2 0 3 -46 3 -102z m540 -48 l0 -55
-50 0 -50 0 0 105 0 104 50 -49 c48 -47 50 -51 50 -105z m-270 -25 l0 -100
-50 0 -50 0 0 100 0 100 50 0 50 0 0 -100z m-156 79 c12 -11 16 -36 16 -97 l0
-82 -45 0 -45 0 0 82 c0 83 12 113 45 113 7 0 21 -7 29 -16z m270 0 c12 -11
16 -36 16 -97 l0 -82 -45 0 -45 0 0 82 c0 83 12 113 45 113 7 0 21 -7 29 -16z
m-524 -199 l0 -195 -25 0 -25 0 0 189 c0 189 0 190 23 194 12 2 23 5 25 6 1 0
2 -87 2 -194z m770 -6 l0 -189 -25 0 -25 0 0 194 0 193 25 -5 25 -4 0 -189z
m-646 39 c12 -17 16 -48 16 -125 l0 -103 -50 0 -50 0 0 103 c0 110 13 147 50
147 10 0 26 -10 34 -22z m540 0 c12 -17 16 -48 16 -125 l0 -103 -50 0 -50 0 0
103 c0 110 13 147 50 147 10 0 26 -10 34 -22z m-406 -60 c7 -7 12 -27 12 -45
0 -32 -1 -33 -45 -33 -44 0 -45 1 -45 33 0 38 15 57 45 57 12 0 26 -5 33 -12z
m136 -4 c9 -8 16 -29 16 -45 0 -28 -1 -29 -50 -29 -49 0 -50 1 -50 29 0 53 50
79 84 45z m134 4 c7 -7 12 -27 12 -45 0 -32 -1 -33 -45 -33 -44 0 -45 1 -45
33 0 38 15 57 45 57 12 0 26 -5 33 -12z m12 -143 l0 -25 -180 0 -180 0 0 25 0
25 180 0 180 0 0 -25z"/>
</g>
</svg>
