<?xml version="1.0" standalone="no"?>
<!DOCTYPE svg PUBLIC "-//W3C//DTD SVG 20010904//EN"
 "http://www.w3.org/TR/2001/REC-SVG-20010904/DTD/svg10.dtd">
<svg version="1.0" xmlns="http://www.w3.org/2000/svg"
 width="112.000000pt" height="112.000000pt" viewBox="0 0 112.000000 112.000000"
 preserveAspectRatio="xMidYMid meet">
<metadata>
Created by potrace 1.10, written by Peter Selinger 2001-2011
</metadata>
<g transform="translate(0.000000,112.000000) scale(0.100000,-0.100000)"
fill="currentColor" stroke="none">
<path d="M700 753 c-19 -8 -99 -42 -177 -75 -162 -68 -179 -78 -170 -102 5
-13 23 -16 106 -16 l100 0 3 -102 c3 -95 4 -103 23 -103 16 0 35 34 102 190
46 105 82 197 80 205 -3 20 -25 21 -67 3z m-26 -165 c-36 -84 -69 -162 -74
-173 -6 -13 -9 12 -9 78 l-1 97 -97 0 -98 1 170 74 c94 40 171 74 172 74 0 1
-28 -68 -63 -151z"/>
</g>
</svg>
