<?xml version="1.0" standalone="no"?>
<!DOCTYPE svg PUBLIC "-//W3C//DTD SVG 20010904//EN"
 "http://www.w3.org/TR/2001/REC-SVG-20010904/DTD/svg10.dtd">
<svg version="1.0" xmlns="http://www.w3.org/2000/svg"
 width="168.000000pt" height="168.000000pt" viewBox="0 0 168.000000 168.000000"
 preserveAspectRatio="xMidYMid meet">
<metadata>
Created by potrace 1.10, written by Peter Selinger 2001-2011
</metadata>
<g transform="translate(0.000000,168.000000) scale(0.100000,-0.100000)"
fill="currentColor" stroke="none">
<path d="M1064 1173 c-11 -37 -21 -49 -57 -66 -23 -12 -37 -26 -37 -38 0 -39
83 -5 103 42 l13 33 22 -37 c19 -33 54 -57 83 -57 5 0 9 11 9 25 0 19 -5 25
-20 25 -25 0 -70 46 -70 71 0 25 -39 25 -46 2z"/>
<path d="M406 1084 c-14 -13 -16 -48 -16 -228 l0 -213 -25 5 c-22 4 -25 1 -25
-22 l0 -26 500 0 500 0 0 26 0 25 -115 -3 -115 -3 0 108 0 108 30 -16 c40 -21
60 -19 60 5 0 13 -9 22 -25 26 -31 8 -65 49 -65 80 0 17 -5 22 -20 21 -11 -1
-20 -7 -20 -15 0 -31 -31 -71 -65 -82 -24 -8 -35 -18 -35 -31 0 -23 24 -25 64
-4 15 8 30 15 32 15 5 0 5 -206 0 -211 -2 -2 -45 -3 -95 -1 l-91 3 0 168 c0
134 -3 171 -14 180 -9 8 -43 11 -88 10 l-73 -2 -3 34 c-6 57 -12 59 -153 59
-103 0 -131 -3 -143 -16z m254 -236 l0 -208 -22 4 c-21 3 -23 9 -26 69 l-3 67
-64 0 -65 0 0 -68 c0 -65 -1 -69 -22 -67 -23 2 -23 2 -26 196 -1 106 -1 198 2
204 2 6 48 10 115 10 l111 0 0 -207z m180 -43 l0 -160 -67 1 -68 2 -3 148 c-1
81 -1 153 1 159 3 5 34 10 71 10 l66 0 0 -160z m263 91 c7 -19 -18 -42 -28
-26 -8 13 1 40 14 40 5 0 11 -6 14 -14z m-533 -206 c0 -46 -2 -50 -22 -46 -20
2 -23 10 -26 49 -3 44 -2 47 22 47 24 0 26 -3 26 -50z"/>
<path d="M483 994 c-9 -23 13 -40 32 -24 12 10 13 16 4 26 -15 18 -28 18 -36
-2z"/>
<path d="M573 994 c-9 -23 13 -40 32 -24 12 10 13 16 4 26 -15 18 -28 18 -36
-2z"/>
<path d="M483 904 c-3 -8 -1 -20 5 -26 15 -15 43 8 35 28 -7 19 -32 18 -40 -2z"/>
<path d="M573 904 c-3 -8 -1 -20 5 -26 15 -15 43 8 35 28 -7 19 -32 18 -40 -2z"/>
<path d="M753 904 c-9 -23 13 -40 32 -24 12 10 13 16 4 26 -15 18 -28 18 -36
-2z"/>
<path d="M753 814 c-9 -23 13 -40 32 -24 12 10 13 16 4 26 -15 18 -28 18 -36
-2z"/>
<path d="M1070 1071 c0 -27 -46 -79 -73 -83 -27 -4 -38 -48 -12 -48 29 0 76
30 85 55 11 30 26 32 35 6 8 -26 35 -48 68 -56 24 -6 27 -5 27 19 0 20 -5 26
-20 26 -29 0 -70 44 -70 75 0 18 -5 25 -20 25 -13 0 -20 -7 -20 -19z"/>
<path d="M340 490 c0 -20 7 -20 500 -20 493 0 500 0 500 20 0 20 -7 20 -500
20 -493 0 -500 0 -500 -20z"/>
<path d="M340 355 l0 -25 500 0 500 0 0 25 0 25 -500 0 -500 0 0 -25z"/>
</g>
</svg>
