<?xml version="1.0" standalone="no"?>
<!DOCTYPE svg PUBLIC "-//W3C//DTD SVG 20010904//EN"
 "http://www.w3.org/TR/2001/REC-SVG-20010904/DTD/svg10.dtd">
<svg version="1.0" xmlns="http://www.w3.org/2000/svg"
 width="168.000000pt" height="168.000000pt" viewBox="0 0 168.000000 168.000000"
 preserveAspectRatio="xMidYMid meet">
<metadata>
Created by potrace 1.10, written by Peter Selinger 2001-2011
</metadata>
<g transform="translate(0.000000,168.000000) scale(0.100000,-0.100000)"
fill="currentColor" stroke="none">
<path d="M570 1259 c0 -23 -14 -48 -55 -97 l-55 -66 0 -111 c0 -106 -1 -113
-25 -135 l-25 -23 0 51 c0 45 -3 52 -20 52 -20 0 -20 -7 -20 -270 l0 -270 -25
0 c-19 0 -25 -5 -25 -22 l0 -23 520 0 520 0 0 23 c0 17 -6 22 -25 22 l-25 0 0
270 c0 263 0 270 -20 270 -17 0 -20 -7 -20 -52 l0 -51 -25 23 c-24 22 -25 29
-25 136 l0 113 -55 65 c-41 48 -55 73 -55 95 0 26 -4 31 -25 31 -21 0 -24 -4
-19 -27 4 -23 -5 -39 -43 -86 l-47 -58 -58 58 c-43 43 -58 65 -58 85 0 21 -5
28 -20 28 -15 0 -20 -7 -20 -28 0 -20 -15 -42 -58 -85 l-57 -57 -49 60 c-38
48 -47 65 -42 85 6 22 3 25 -19 25 -21 0 -25 -5 -25 -31z m59 -112 l35 -37
-68 0 -68 0 32 40 c18 23 33 40 34 38 0 -2 17 -20 35 -41z m268 -9 c52 -51 53
-54 53 -110 0 -51 -2 -58 -20 -58 -11 0 -20 7 -20 15 0 9 -9 15 -25 15 -16 0
-25 -6 -25 -15 0 -8 -9 -15 -20 -15 -11 0 -20 7 -20 15 0 9 -9 15 -25 15 -16
0 -25 -6 -25 -15 0 -8 -9 -15 -20 -15 -18 0 -20 7 -20 57 0 56 2 59 52 110 29
29 55 53 57 53 3 0 29 -23 58 -52z m223 12 l32 -40 -67 0 -66 0 33 40 c18 22
34 40 35 40 1 0 16 -18 33 -40z m-438 -232 c2 -84 1 -155 0 -158 -2 -3 -17 12
-34 33 -38 47 -62 47 -110 0 l-38 -37 0 157 0 157 89 0 90 0 3 -152z m498 -5
l0 -157 -38 37 c-48 47 -72 47 -110 0 -17 -21 -32 -36 -34 -33 -1 3 -2 74 0
158 l3 152 90 0 89 0 0 -157z m-225 -118 l0 -135 -25 0 c-25 0 -25 1 -25 85 0
82 -1 86 -32 117 l-33 33 -32 -33 c-32 -31 -33 -35 -33 -117 0 -84 0 -85 -25
-85 l-25 0 0 135 0 135 115 0 115 0 0 -135z m-95 -53 l5 -82 -25 0 c-25 0 -25
1 -22 72 3 85 8 101 25 96 8 -3 14 -34 17 -86z m-400 -142 l0 -210 -25 0 -25
0 0 187 c0 178 1 188 22 210 12 13 23 23 25 23 2 0 3 -94 3 -210z m810 -22 l0
-188 -25 0 -25 0 0 212 0 211 25 -23 c25 -23 25 -24 25 -212z m-588 -34 l3
-154 -92 0 -93 0 0 152 0 152 46 47 46 47 44 -45 43 -46 3 -153z m498 -1 l0
-153 -92 0 -93 0 3 154 3 153 42 45 42 45 48 -45 47 -46 0 -153z m-228 -38 l3
-115 -25 0 c-24 0 -25 2 -22 63 3 52 0 67 -18 90 -27 34 -63 35 -96 2 -23 -23
-25 -32 -22 -90 3 -64 2 -65 -22 -65 l-25 0 3 115 3 115 109 0 109 0 3 -115z
m-92 -48 c5 -66 5 -67 -20 -67 -24 0 -25 2 -22 57 4 71 8 86 25 81 7 -3 14
-31 17 -71z"/>
<path d="M573 1004 c-3 -8 -1 -20 5 -26 15 -15 43 8 35 28 -7 19 -32 18 -40
-2z"/>
<path d="M573 914 c-3 -8 -1 -20 5 -26 15 -15 43 8 35 28 -7 19 -32 18 -40 -2z"/>
<path d="M1064 1009 c-3 -6 0 -17 7 -25 18 -17 44 -2 36 20 -7 18 -33 21 -43
5z"/>
<path d="M1064 919 c-3 -6 0 -17 7 -25 18 -17 44 -2 36 20 -7 18 -33 21 -43 5z"/>
<path d="M547 682 c-58 -64 33 -151 91 -89 26 27 28 54 6 85 -19 28 -74 30
-97 4z m69 -33 c10 -17 -23 -46 -37 -32 -7 7 -9 19 -6 27 7 18 33 21 43 5z"/>
<path d="M1059 696 c-37 -18 -47 -60 -22 -94 24 -33 56 -39 89 -18 62 42 0
146 -67 112z m48 -52 c3 -8 1 -20 -6 -27 -14 -14 -47 15 -37 32 10 16 36 13
43 -5z"/>
</g>
</svg>
