<?xml version="1.0" standalone="no"?>
<!DOCTYPE svg PUBLIC "-//W3C//DTD SVG 20010904//EN"
 "http://www.w3.org/TR/2001/REC-SVG-20010904/DTD/svg10.dtd">
<svg version="1.0" xmlns="http://www.w3.org/2000/svg"
 width="168.000000pt" height="168.000000pt" viewBox="0 0 168.000000 168.000000"
 preserveAspectRatio="xMidYMid meet">
<metadata>
Created by potrace 1.10, written by Peter Selinger 2001-2011
</metadata>
<g transform="translate(0.000000,168.000000) scale(0.100000,-0.100000)"
fill="currentColor" stroke="none">
<path d="M820 1325 c0 -23 -8 -42 -25 -59 -24 -24 -25 -31 -25 -140 0 -63 -5
-149 -11 -191 -11 -69 -13 -75 -35 -75 -17 0 -24 -6 -24 -20 0 -12 7 -20 16
-20 21 0 14 -28 -30 -130 -31 -73 -33 -75 -64 -72 -28 2 -32 -1 -32 -23 0 -19
5 -25 21 -25 l21 0 -21 -33 c-11 -17 -39 -58 -62 -89 l-42 -58 -58 0 c-55 0
-59 -2 -59 -22 l0 -23 450 0 450 0 0 23 c0 20 -4 22 -59 22 l-58 0 -63 87
c-56 79 -60 88 -41 91 15 2 21 11 21 28 0 23 -3 25 -29 19 -27 -6 -32 -3 -52
36 -21 43 -59 144 -59 161 0 4 7 8 15 8 8 0 15 9 15 20 0 14 -7 20 -24 20 -22
0 -24 6 -35 75 -6 42 -11 127 -11 190 0 106 -2 115 -25 143 -15 18 -25 42 -25
61 0 24 -4 31 -20 31 -16 0 -20 -7 -20 -35z m41 -103 c7 -20 5 -22 -22 -22
-17 0 -28 3 -26 8 2 4 7 15 10 25 9 23 28 18 38 -11z m6 -189 c7 -71 15 -138
19 -150 6 -22 4 -23 -46 -23 -50 0 -52 1 -46 23 4 12 12 79 19 150 9 104 14
127 27 127 13 0 18 -23 27 -127z m59 -292 c14 -40 31 -86 40 -102 14 -29 14
-29 -15 -29 -27 0 -32 6 -53 60 -22 58 -24 60 -58 60 -34 0 -36 -3 -59 -60
-21 -53 -27 -60 -52 -60 l-28 0 23 53 c13 28 31 76 41 105 l17 53 60 -3 59 -3
25 -74z m-68 -84 c16 -46 16 -47 -18 -47 -16 0 -30 3 -30 7 0 14 24 73 30 73
3 0 11 -15 18 -33z m177 -147 c20 -34 48 -74 62 -90 l25 -30 -37 0 c-28 0 -42
7 -61 29 -38 46 -118 81 -183 81 -68 0 -145 -33 -183 -79 -21 -24 -35 -31 -63
-31 l-37 0 30 38 c16 20 44 61 62 90 l32 52 158 0 159 0 36 -60z m-96 -80 c71
-36 61 -40 -99 -40 -156 0 -169 4 -107 37 74 38 136 39 206 3z"/>
</g>
</svg>
