<?xml version="1.0" standalone="no"?>
<!DOCTYPE svg PUBLIC "-//W3C//DTD SVG 20010904//EN"
 "http://www.w3.org/TR/2001/REC-SVG-20010904/DTD/svg10.dtd">
<svg version="1.0" xmlns="http://www.w3.org/2000/svg"
 width="168.000000pt" height="168.000000pt" viewBox="0 0 168.000000 168.000000"
 preserveAspectRatio="xMidYMid meet">
<metadata>
Created by potrace 1.10, written by Peter Selinger 2001-2011
</metadata>
<g transform="translate(0.000000,168.000000) scale(0.100000,-0.100000)"
fill="currentColor" stroke="none">
<path d="M659 1327 c-27 -14 -38 -59 -19 -81 8 -10 4 -32 -13 -86 l-23 -71
-12 38 c-7 24 -8 41 -2 47 6 6 10 22 10 38 0 38 -41 65 -75 50 -31 -14 -43
-58 -23 -79 14 -13 13 -23 -11 -86 -24 -68 -26 -84 -29 -307 l-4 -235 -40 -82
c-30 -61 -46 -83 -60 -83 -14 0 -18 -6 -16 -20 3 -21 8 -21 498 -21 490 0 495
0 498 21 2 14 -2 20 -16 20 -14 0 -30 22 -59 83 l-41 82 -4 235 c-4 222 -5
239 -30 307 -23 63 -24 73 -10 86 20 21 8 65 -23 79 -51 23 -95 -39 -64 -90 9
-14 8 -25 -3 -46 l-15 -28 -22 68 c-15 47 -19 70 -11 78 14 14 13 61 -2 73
-27 21 -47 21 -72 2 -29 -23 -33 -50 -11 -72 13 -14 12 -21 -6 -61 -11 -25
-25 -82 -31 -126 -11 -74 -14 -80 -33 -73 -25 10 -75 9 -96 -1 -14 -6 -17 3
-23 53 -4 33 -16 88 -27 121 -17 52 -18 66 -8 95 10 27 10 37 -1 50 -23 28
-45 35 -71 22z m48 -198 c11 -38 17 -117 20 -270 l5 -216 -28 -6 c-16 -4 -38
-9 -49 -12 -20 -6 -20 -3 -14 232 5 212 14 289 36 326 8 13 13 3 30 -54z m317
-16 c11 -49 17 -128 18 -281 l3 -213 -22 6 c-12 3 -34 10 -48 15 l-25 10 0
172 c0 95 4 198 9 229 14 84 31 140 40 134 5 -2 16 -35 25 -72z m-449 -69 c11
-42 15 -111 15 -250 l0 -191 -39 -11 c-21 -7 -42 -12 -46 -12 -4 0 -5 93 -3
208 3 160 8 223 23 276 20 76 25 74 50 -20z m602 -251 c3 -117 2 -213 -2 -213
-4 0 -25 5 -46 12 l-39 11 0 186 c0 130 5 206 15 251 23 100 25 101 48 30 16
-54 21 -101 24 -277z m-279 145 c7 -7 12 -38 12 -70 l0 -58 -35 17 c-33 16
-37 16 -70 0 l-35 -17 0 60 c0 46 4 61 18 69 24 14 95 14 110 -1z m-21 -160
c32 -12 33 -14 33 -66 0 -48 -2 -53 -17 -46 -23 10 -72 11 -100 1 -22 -8 -23
-6 -23 46 0 51 2 56 28 65 36 14 40 14 79 0z m18 -158 c12 -4 43 -34 70 -66
27 -33 72 -83 99 -111 l49 -53 -82 0 -81 0 0 38 c0 82 -71 137 -145 112 -46
-15 -75 -57 -75 -109 l0 -41 -80 0 -81 0 101 114 c120 135 143 147 225 116z
m-201 -35 c-17 -13 -64 -63 -104 -110 -70 -83 -73 -85 -116 -85 -24 0 -44 2
-44 5 0 2 14 34 32 69 l32 65 98 32 c54 17 101 35 104 40 3 5 11 9 17 9 7 0
-2 -11 -19 -25z m296 16 c0 -5 44 -23 98 -41 l99 -32 31 -64 c18 -36 32 -67
32 -69 0 -3 -19 -5 -43 -5 -42 0 -46 3 -117 85 -40 47 -86 97 -102 110 -20 17
-24 25 -14 25 9 0 16 -4 16 -9z m-100 -121 c12 -12 20 -33 20 -55 l0 -35 -70
0 -70 0 0 35 c0 44 29 75 70 75 17 0 39 -9 50 -20z"/>
<path d="M820 730 c0 -13 7 -20 20 -20 13 0 20 7 20 20 0 13 -7 20 -20 20 -13
0 -20 -7 -20 -20z"/>
</g>
</svg>
