<?xml version="1.0" standalone="no"?>
<!DOCTYPE svg PUBLIC "-//W3C//DTD SVG 20010904//EN"
 "http://www.w3.org/TR/2001/REC-SVG-20010904/DTD/svg10.dtd">
<svg version="1.0" xmlns="http://www.w3.org/2000/svg"
 width="168.000000pt" height="168.000000pt" viewBox="0 0 168.000000 168.000000"
 preserveAspectRatio="xMidYMid meet">
<metadata>
Created by potrace 1.10, written by Peter Selinger 2001-2011
</metadata>
<g transform="translate(0.000000,168.000000) scale(0.100000,-0.100000)"
fill="currentColor" stroke="none">
<path d="M820 1320 c0 -56 -2 -60 -23 -60 -13 0 -44 -13 -69 -29 -65 -41 -88
-94 -88 -202 0 -54 -4 -89 -12 -97 -8 -8 -12 -34 -10 -70 3 -47 -1 -61 -17
-76 -19 -18 -20 -17 -27 21 -3 21 -22 111 -40 201 -19 89 -34 180 -34 202 0
33 -3 40 -20 40 -17 0 -20 -7 -20 -42 0 -22 -20 -137 -45 -255 -43 -206 -45
-219 -45 -388 0 -152 -2 -175 -16 -175 -10 0 -14 -7 -12 -20 3 -21 8 -21 498
-21 490 0 495 0 498 21 2 13 -2 20 -12 20 -14 0 -16 23 -16 177 0 170 -1 183
-45 390 -25 117 -45 231 -45 253 0 33 -3 40 -20 40 -17 0 -20 -7 -20 -41 0
-23 -19 -131 -42 -240 -40 -193 -42 -198 -60 -182 -15 14 -18 29 -16 74 1 31
-2 63 -9 70 -6 8 -13 57 -15 110 -2 82 -7 101 -28 131 -29 43 -94 88 -127 88
-21 0 -23 4 -23 60 0 53 -2 60 -20 60 -18 0 -20 -7 -20 -60z m100 -122 c47
-32 71 -68 77 -116 5 -40 4 -42 -21 -42 -21 0 -26 5 -26 25 0 18 -5 25 -20 25
-15 0 -20 -7 -20 -25 0 -20 -5 -25 -25 -25 -20 0 -25 5 -25 25 0 18 -5 25 -20
25 -15 0 -20 -7 -20 -25 0 -20 -5 -25 -25 -25 -20 0 -25 5 -25 25 0 18 -5 25
-20 25 -15 0 -20 -7 -20 -25 0 -20 -5 -25 -26 -25 -25 0 -26 2 -21 42 11 78
78 138 157 138 32 0 57 -7 80 -22z m-417 -250 c10 -51 20 -106 23 -123 l5 -30
-25 28 -26 28 -26 -28 -25 -28 5 30 c25 136 42 215 46 215 3 0 13 -42 23 -92z
m720 0 c10 -51 20 -106 23 -123 l5 -30 -25 28 -26 28 -26 -28 -25 -28 5 30
c25 136 42 215 46 215 3 0 13 -42 23 -92z m-223 8 c0 -25 5 -48 10 -51 6 -3
10 -28 10 -54 0 -37 -5 -52 -23 -69 l-23 -22 -34 35 -33 34 -34 -37 -33 -37
-33 37 -34 37 -33 -34 -34 -35 -23 22 c-18 17 -23 32 -23 69 0 26 5 51 10 54
6 3 10 26 10 51 l0 44 160 0 160 0 0 -44z m-473 -218 l43 -42 36 34 35 35 30
-32 c16 -18 31 -33 34 -33 3 0 18 15 34 33 l30 32 35 -34 36 -35 36 35 35 34
30 -32 c16 -18 31 -33 34 -33 3 0 18 15 34 33 l30 32 35 -35 36 -34 45 44 45
44 35 -34 35 -34 0 -163 0 -163 -70 0 c-68 0 -70 1 -70 25 0 18 -5 25 -20 25
-15 0 -20 -7 -20 -25 0 -24 -2 -25 -70 -25 -68 0 -70 1 -70 25 0 18 -5 25 -20
25 -15 0 -20 -7 -20 -25 0 -24 -2 -25 -70 -25 -68 0 -70 1 -70 25 0 18 -5 25
-20 25 -15 0 -20 -7 -20 -25 0 -24 -2 -25 -70 -25 -68 0 -70 1 -70 25 0 18 -5
25 -20 25 -15 0 -20 -7 -20 -25 0 -24 -2 -25 -70 -25 l-70 0 0 162 0 162 32
33 c18 18 34 33 37 33 3 0 25 -19 48 -42z"/>
<path d="M730 930 c0 -13 7 -20 20 -20 13 0 20 7 20 20 0 13 -7 20 -20 20 -13
0 -20 -7 -20 -20z"/>
<path d="M820 930 c0 -13 7 -20 20 -20 13 0 20 7 20 20 0 13 -7 20 -20 20 -13
0 -20 -7 -20 -20z"/>
<path d="M910 930 c0 -13 7 -20 20 -20 13 0 20 7 20 20 0 13 -7 20 -20 20 -13
0 -20 -7 -20 -20z"/>
<path d="M614 666 c-16 -12 -20 -29 -23 -100 l-3 -86 71 0 71 0 0 74 c0 59 -4
78 -21 100 -23 29 -64 35 -95 12z m64 -89 c3 -52 1 -57 -18 -57 -18 0 -20 6
-20 53 0 30 3 57 7 61 17 16 28 -5 31 -57z"/>
<path d="M795 664 c-17 -12 -21 -29 -24 -99 l-3 -85 71 0 71 0 0 71 c0 68 -11
106 -34 121 -18 12 -60 8 -81 -8z m63 -87 c3 -52 1 -57 -18 -57 -18 0 -20 6
-20 53 0 30 3 57 7 61 17 16 28 -5 31 -57z"/>
<path d="M975 664 c-17 -12 -21 -29 -24 -99 l-3 -85 71 0 71 0 0 74 c0 59 -4
78 -21 100 -23 30 -63 34 -94 10z m63 -87 c3 -52 1 -57 -18 -57 -18 0 -20 6
-20 53 0 30 3 57 7 61 17 16 28 -5 31 -57z"/>
<path d="M500 550 c0 -68 1 -70 25 -70 24 0 25 2 25 70 0 68 -1 70 -25 70 -24
0 -25 -2 -25 -70z"/>
<path d="M1130 550 c0 -68 1 -70 25 -70 24 0 25 2 25 70 0 68 -1 70 -25 70
-24 0 -25 -2 -25 -70z"/>
</g>
</svg>
