<?xml version="1.0" standalone="no"?>
<!DOCTYPE svg PUBLIC "-//W3C//DTD SVG 20010904//EN"
 "http://www.w3.org/TR/2001/REC-SVG-20010904/DTD/svg10.dtd">
<svg version="1.0" xmlns="http://www.w3.org/2000/svg"
 width="168.000000pt" height="168.000000pt" viewBox="0 0 168.000000 168.000000"
 preserveAspectRatio="xMidYMid meet">
<metadata>
Created by potrace 1.10, written by Peter Selinger 2001-2011
</metadata>
<g transform="translate(0.000000,168.000000) scale(0.100000,-0.100000)"
fill="currentColor" stroke="none">
<path d="M1060 1180 c0 -12 -11 -32 -25 -45 -13 -14 -33 -25 -45 -25 -13 0
-20 -7 -20 -19 0 -30 12 -32 59 -10 l43 19 -6 -28 c-8 -33 -50 -72 -77 -72
-14 0 -19 -7 -19 -25 0 -30 14 -31 64 -6 l38 20 -7 -27 c-8 -35 -41 -70 -69
-74 -13 -2 -22 -12 -24 -25 -4 -29 21 -30 66 -3 l32 20 0 -110 0 -110 -115 0
-115 0 0 96 c0 63 3 93 10 89 6 -4 18 -1 26 6 13 11 -3 31 -113 141 -78 78
-135 128 -148 128 -11 0 -55 -35 -103 -82 l-84 -83 4 55 c3 51 1 55 -19 58
-22 3 -23 1 -23 -76 0 -71 -2 -81 -25 -102 -19 -18 -22 -26 -13 -37 6 -8 17
-12 25 -9 10 4 13 -14 13 -89 l0 -95 -26 0 c-20 0 -25 -4 -22 -20 3 -21 8 -21
498 -21 490 0 495 0 498 21 3 19 -2 20 -112 20 l-116 0 0 105 c0 58 3 105 8
105 4 0 16 -7 26 -15 31 -24 56 -19 56 10 0 19 -5 25 -20 25 -30 0 -70 44 -70
76 0 25 1 26 18 11 9 -8 29 -19 45 -22 24 -6 27 -5 27 19 0 20 -5 26 -20 26
-28 0 -70 47 -70 77 0 22 1 23 23 9 12 -8 32 -17 45 -21 18 -5 22 -3 22 17 0
16 -10 27 -33 38 -18 8 -39 29 -47 47 -18 39 -60 47 -60 13z m-260 -402 l0
-118 -60 0 -60 0 0 53 c0 65 -8 77 -52 80 -67 6 -78 -5 -78 -73 l0 -60 -60 0
-60 0 0 117 0 118 92 92 93 93 92 -92 93 -93 0 -117z m-160 -73 c0 -41 -2 -45
-25 -45 -23 0 -25 4 -25 45 0 41 2 45 25 45 23 0 25 -4 25 -45z"/>
<path d="M594 915 c-8 -19 12 -36 33 -28 19 7 12 37 -10 41 -9 2 -20 -4 -23
-13z"/>
<path d="M378 527 c-40 -23 -51 -57 -20 -57 10 0 27 7 38 15 10 8 28 14 39 14
11 0 29 -6 39 -14 11 -8 34 -15 51 -15 17 0 40 7 51 15 24 18 54 18 78 0 11
-8 34 -15 51 -15 17 0 40 7 51 15 24 18 54 18 78 0 11 -8 34 -15 51 -15 17 0
40 7 51 15 10 8 28 14 39 14 11 0 29 -6 39 -14 25 -19 77 -19 102 0 10 8 28
14 39 14 11 0 29 -6 39 -14 42 -32 145 -1 146 43 0 28 -11 28 -59 0 l-38 -22
-35 22 c-44 28 -62 28 -106 0 l-35 -22 -38 22 c-47 27 -61 27 -108 0 l-38 -22
-35 22 c-19 12 -43 22 -53 22 -10 0 -34 -10 -53 -22 l-35 -22 -38 22 c-21 12
-45 22 -54 22 -9 0 -33 -10 -54 -22 l-38 -22 -35 22 c-44 27 -63 27 -110 -1z"/>
<path d="M373 392 c-22 -11 -33 -24 -33 -39 0 -29 13 -29 57 -2 l35 22 42 -22
c53 -26 52 -26 100 0 l39 21 42 -21 c23 -12 46 -21 51 -21 5 0 27 9 48 21 l39
21 42 -21 c52 -26 51 -26 99 0 l39 21 42 -21 c52 -26 51 -26 99 0 l39 21 42
-21 c52 -26 48 -26 101 1 28 14 44 28 44 40 0 22 -28 24 -56 3 -24 -18 -54
-18 -78 0 -25 19 -77 19 -102 0 -24 -18 -54 -18 -78 0 -25 19 -77 19 -102 0
-10 -8 -28 -14 -39 -14 -11 0 -29 6 -39 14 -11 8 -34 15 -51 15 -17 0 -40 -7
-51 -15 -24 -18 -54 -18 -78 0 -25 19 -77 19 -102 0 -24 -18 -54 -18 -78 0
-26 19 -73 18 -113 -3z"/>
</g>
</svg>
