<?xml version="1.0" standalone="no"?>
<!DOCTYPE svg PUBLIC "-//W3C//DTD SVG 20010904//EN"
 "http://www.w3.org/TR/2001/REC-SVG-20010904/DTD/svg10.dtd">
<svg version="1.0" xmlns="http://www.w3.org/2000/svg"
 width="168.000000pt" height="168.000000pt" viewBox="0 0 168.000000 168.000000"
 preserveAspectRatio="xMidYMid meet">
<metadata>
Created by potrace 1.10, written by Peter Selinger 2001-2011
</metadata>
<g transform="translate(0.000000,168.000000) scale(0.100000,-0.100000)"
fill="currentColor" stroke="none">
<path d="M370 1155 c0 -14 5 -25 10 -25 6 0 10 -28 10 -65 0 -37 -4 -65 -10
-65 -5 0 -10 -11 -10 -25 0 -14 5 -25 10 -25 6 0 10 -34 10 -81 0 -51 -4 -78
-10 -74 -6 4 -10 -5 -10 -19 0 -14 5 -26 10 -26 6 0 10 -33 10 -80 0 -47 -4
-80 -10 -80 -5 0 -10 -9 -10 -20 0 -11 5 -20 10 -20 6 0 10 -33 10 -80 0 -79
0 -80 -26 -80 -20 0 -25 -4 -22 -20 3 -21 8 -21 498 -21 490 0 495 0 498 21 3
16 -2 20 -22 20 -26 0 -26 1 -26 80 0 47 4 80 10 80 6 0 10 9 10 20 0 11 -4
20 -10 20 -6 0 -10 33 -10 80 0 47 4 80 10 80 6 0 10 10 10 23 l0 22 -183 -3
-183 -3 -48 173 c-27 95 -55 183 -63 196 -13 22 -16 22 -238 22 l-225 0 0 -25z
m452 -90 c10 -33 18 -62 18 -65 0 -3 -92 -4 -205 -2 l-205 3 0 65 0 64 187 -2
187 -3 18 -60z m51 -179 c9 -36 20 -72 23 -80 5 -13 -3 -16 -50 -16 l-56 0 0
40 c0 44 -26 80 -59 80 -10 0 -30 -9 -45 -21 -20 -16 -26 -29 -26 -60 0 -35
-3 -39 -25 -39 -22 0 -25 4 -25 40 0 44 -26 80 -59 80 -10 0 -30 -9 -45 -21
-20 -16 -26 -29 -26 -60 0 -35 -3 -39 -25 -39 -25 0 -25 1 -25 80 l0 80 213 0
213 0 17 -64z m-303 -61 c0 -31 -3 -35 -25 -35 -21 0 -25 5 -25 28 0 33 7 42
32 42 14 0 18 -8 18 -35z m180 0 c0 -31 -3 -35 -25 -35 -21 0 -25 5 -25 28 0
33 7 42 32 42 14 0 18 -8 18 -35z m185 -157 l23 -78 -40 0 -39 0 2 58 c3 52 1
57 -19 60 -21 3 -22 0 -22 -57 0 -58 -1 -61 -25 -61 -22 0 -25 4 -25 37 0 47
-24 73 -66 73 -40 0 -64 -29 -64 -77 0 -29 -3 -33 -25 -33 -22 0 -25 4 -25 37
0 47 -24 73 -66 73 -40 0 -64 -29 -64 -77 0 -29 -3 -33 -25 -33 -25 0 -25 1
-25 80 l0 80 241 -2 242 -3 22 -77z m315 2 c0 -79 0 -80 -25 -80 -22 0 -25 4
-25 34 0 44 -28 79 -63 79 -41 0 -67 -29 -67 -75 0 -37 -1 -38 -34 -38 -34 0
-35 2 -51 58 -8 31 -20 67 -25 80 l-10 22 150 0 150 0 0 -80z m-682 -48 c3
-29 1 -32 -22 -32 -22 0 -26 5 -26 28 0 33 8 44 30 40 9 -2 16 -16 18 -36z
m180 0 c3 -29 1 -32 -22 -32 -22 0 -26 5 -26 28 0 33 8 44 30 40 9 -2 16 -16
18 -36z m410 0 c3 -29 1 -32 -22 -32 -22 0 -26 5 -26 28 0 33 8 44 30 40 9 -2
16 -16 18 -36z m-174 -124 c30 -107 30 -108 7 -108 -18 0 -21 6 -21 37 0 45
-24 73 -62 73 -39 0 -68 -32 -68 -75 0 -31 -3 -35 -25 -35 -22 0 -25 4 -25 37
0 45 -24 73 -62 73 -39 0 -68 -32 -68 -75 0 -31 -3 -35 -25 -35 -22 0 -25 4
-25 37 0 45 -24 73 -62 73 -39 0 -68 -32 -68 -75 0 -31 -3 -35 -25 -35 -25 0
-25 1 -25 80 l0 80 269 0 270 0 15 -52z m266 -28 c0 -79 0 -80 -25 -80 -22 0
-25 4 -25 35 0 42 -29 75 -67 75 -39 0 -63 -27 -63 -72 0 -57 -14 -46 -32 25
-8 34 -19 70 -23 80 -7 16 2 17 114 17 l121 0 0 -80z m-682 -48 c3 -29 1 -32
-22 -32 -19 0 -26 5 -26 19 0 58 43 70 48 13z m180 0 c3 -29 1 -32 -22 -32
-19 0 -26 5 -26 19 0 58 43 70 48 13z m180 0 c3 -29 1 -32 -22 -32 -19 0 -26
5 -26 19 0 58 43 70 48 13z m226 22 c13 -35 7 -54 -19 -54 -21 0 -25 5 -25 28
0 16 3 32 7 35 11 12 31 7 37 -9z"/>
<path d="M531 1076 c-9 -10 -8 -16 4 -26 19 -16 41 1 32 24 -8 20 -21 20 -36
2z"/>
<path d="M664 1075 c-7 -18 3 -35 21 -35 18 0 26 25 12 39 -15 15 -27 14 -33
-4z"/>
</g>
</svg>
